<?xml version="1.0" encoding="utf-8"?>
<!-- Generator: Adobe Illustrator 27.6.1, SVG Export Plug-In . SVG Version: 6.00 Build 0)  -->
<svg version="1.1" id="Layer_2_00000127010667904641920460000012292449599847789735_"
	 xmlns="http://www.w3.org/2000/svg" xmlns:xlink="http://www.w3.org/1999/xlink" x="0px" y="0px" viewBox="0 0 317.5 317.5"
	 style="enable-background:new 0 0 317.5 317.5;" xml:space="preserve">
<style type="text/css">
	.st0{fill:#939598;}
</style>
<g>
	<path class="st0" d="M158.7,18.5c37.4,0,72.7,14.6,99.1,41.1c26.5,26.5,41.1,61.7,41.1,99.1s-14.6,72.7-41.1,99.1
		c-26.5,26.5-61.7,41.1-99.1,41.1s-72.7-14.6-99.1-41.1c-26.5-26.5-41.1-61.7-41.1-99.1s14.6-72.7,41.1-99.1
		C86.1,33.1,121.3,18.5,158.7,18.5 M158.7,3.5C73,3.5,3.5,73,3.5,158.7S73,313.9,158.7,313.9s155.2-69.5,155.2-155.2
		S244.5,3.5,158.7,3.5L158.7,3.5z"/>
</g>
</svg>
